<svg width="243" height="209" viewBox="0 0 243 209" fill="none" xmlns="http://www.w3.org/2000/svg">
<path d="M9.40234 96.0273V98.1806" stroke="#252B37" stroke-width="3.38308" stroke-linecap="round"/>
<path d="M4.5625 97.1934L6.32391 99.0047" stroke="#252B37" stroke-width="3.38308" stroke-linecap="round"/>
<path d="M2.5 102.016H4.99062" stroke="#252B37" stroke-width="3.38308" stroke-linecap="round"/>
<path d="M4.35938 106.923L6.12079 105.111" stroke="#252B37" stroke-width="3.38308" stroke-linecap="round"/>
<path d="M9.40234 107.513V105.359" stroke="#252B37" stroke-width="3.38308" stroke-linecap="round"/>
<path d="M12.9956 106.076L11.5586 104.641" stroke="#252B37" stroke-width="3.38308" stroke-linecap="round"/>
<path d="M15.8665 102.486H13.7109" stroke="#252B37" stroke-width="3.38308" stroke-linecap="round"/>
<path d="M14.4292 97.4629L12.9922 98.8984" stroke="#252B37" stroke-width="3.38308" stroke-linecap="round"/>
<path d="M125.082 2V3.43553" stroke="#252B37" stroke-width="3.38308" stroke-linecap="round"/>
<path d="M120.773 6.30664H122.21" stroke="#252B37" stroke-width="3.38308" stroke-linecap="round"/>
<path d="M125.082 10.6133V9.17773" stroke="#252B37" stroke-width="3.38308" stroke-linecap="round"/>
<path d="M128.675 6.30664H127.238" stroke="#252B37" stroke-width="3.38308" stroke-linecap="round"/>
<path d="M41.7344 62.293V64.4463" stroke="#252B37" stroke-width="3.38308" stroke-linecap="round"/>
<path d="M35.2656 68.752H37.4212" stroke="#252B37" stroke-width="3.38308" stroke-linecap="round"/>
<path d="M41.7344 74.4951V72.3418" stroke="#252B37" stroke-width="3.38308" stroke-linecap="round"/>
<path d="M47.4837 68.752H45.3281" stroke="#252B37" stroke-width="3.38308" stroke-linecap="round"/>
<path d="M196.403 140.559C198.12 140.559 199.513 141.95 199.513 143.666C199.513 145.382 198.12 146.773 196.403 146.773C194.686 146.773 193.293 145.382 193.293 143.666" stroke="#252B37" stroke-width="3.38308" stroke-linecap="round"/>
<path fill-rule="evenodd" clip-rule="evenodd" d="M210.633 112.368C212.479 111.792 215.31 109.536 215.965 107.109C216.559 109.255 219.05 111.792 221.297 111.984C218.767 112.879 216.348 115.537 215.965 117.625C215.704 115.497 212.358 112.678 210.633 112.368Z" fill="#252B37"/>
<path fill-rule="evenodd" clip-rule="evenodd" d="M21.0938 139.601C22.0173 139.314 23.4319 138.186 23.7594 136.973C24.0565 138.045 25.3015 139.314 26.4251 139.41C25.1606 139.857 23.9516 141.186 23.7594 142.23C23.6289 141.166 21.9563 139.756 21.0938 139.601Z" fill="#252B37"/>
<path fill-rule="evenodd" clip-rule="evenodd" d="M38.2328 39.7531C38.2328 41.0843 37.1531 42.1625 35.8215 42.1625C34.4892 42.1625 33.4102 41.0843 33.4102 39.7531C33.4102 38.4226 34.4892 37.3438 35.8215 37.3438C37.1531 37.3438 38.2328 38.4226 38.2328 39.7531Z" fill="#252B37"/>
<path fill-rule="evenodd" clip-rule="evenodd" d="M199.249 46.2224C199.249 48.4465 197.444 50.2494 195.218 50.2494C192.992 50.2494 191.188 48.4465 191.188 46.2224C191.188 43.9982 192.992 42.1953 195.218 42.1953C197.444 42.1953 199.249 43.9982 199.249 46.2224Z" fill="#252B37"/>
<path fill-rule="evenodd" clip-rule="evenodd" d="M228.022 66.5792C228.022 68.3438 226.591 69.7737 224.826 69.7737C223.06 69.7737 221.629 68.3438 221.629 66.5792C221.629 64.8147 223.06 63.3848 224.826 63.3848C226.591 63.3848 228.022 64.8147 228.022 66.5792Z" fill="#252B37"/>
<path fill-rule="evenodd" clip-rule="evenodd" d="M83.2998 184.506C83.2998 185.618 82.3976 186.52 81.2844 186.52C80.1717 186.52 79.2695 185.618 79.2695 184.506C79.2695 183.394 80.1717 182.492 81.2844 182.492C82.3976 182.492 83.2998 183.394 83.2998 184.506Z" stroke="#252B37" stroke-width="3.38308" stroke-linecap="round"/>
<path fill-rule="evenodd" clip-rule="evenodd" d="M82.1 24.2746C82.1 25.6058 81.0203 26.684 79.6887 26.684C78.357 26.684 77.2773 25.6058 77.2773 24.2746C77.2773 22.9441 78.357 21.8652 79.6887 21.8652C81.0203 21.8652 82.1 22.9441 82.1 24.2746Z" stroke="#252B37" stroke-width="3.38308" stroke-linecap="round"/>
<path fill-rule="evenodd" clip-rule="evenodd" d="M143.606 206.806C142.065 207.392 140.341 206.618 139.755 205.079C139.168 203.54 139.942 201.816 141.483 201.231C143.024 200.645 144.748 201.418 145.334 202.958C145.921 204.497 145.147 206.22 143.606 206.806Z" stroke="#252B37" stroke-width="3.38308" stroke-linecap="round"/>
<path d="M186.537 79.7435L119.323 126.65L52.1094 79.7435L113.638 36.7865C115.307 35.6235 117.292 35 119.326 35C121.36 35 123.345 35.6235 125.014 36.7865L137.287 45.3667L140.5 47.5983L172.858 70.1925L176.266 72.5858L186.537 79.7435Z" fill="#717680"/>
<path d="M108.394 119.025L52.1094 159.047V79.7441L108.394 119.025Z" fill="#414651"/>
<path d="M130.258 119.025L186.543 159.047V79.7441L130.258 119.025Z" fill="#414651"/>
<path d="M52.1094 159.044L113.566 115.351C115.248 114.153 117.261 113.51 119.326 113.51C121.391 113.51 123.404 114.153 125.086 115.351L186.537 159.044H52.1094Z" fill="#252B37"/>
<path d="M59.2121 65.3711C48.9078 70.1912 37.835 73.1584 26.5012 74.1365C28.0326 77.6964 38.9139 95.5162 71.215 110.199C72.0882 110.333 92.2588 100.95 103.328 94.5153C102.952 95.0527 68.9448 82.5393 59.2121 65.3711Z" fill="#D5D7DA"/>
<path d="M153.927 83.8538C166.313 83.8538 176.354 73.8129 176.354 61.4269C176.354 49.0409 166.313 39 153.927 39C141.541 39 131.5 49.0409 131.5 61.4269C131.5 73.8129 141.541 83.8538 153.927 83.8538Z" fill="#632ABB"/>
<path d="M60.0107 74.2349C59.5365 73.9059 58.936 73.8171 58.3869 73.9947L40.3585 79.8274C39.7126 80.0364 39.4825 80.8318 39.9171 81.3533C40.267 81.7732 40.8398 81.9336 41.3569 81.7565L59.8453 75.4239C60.367 75.2452 60.4638 74.5492 60.0107 74.2349Z" fill="#A4A7AE"/>
<path d="M59.6964 81.4163C59.2391 80.9869 58.5828 80.8438 57.9883 81.0439L45.5075 85.2443C44.9572 85.4295 44.7629 86.1085 45.1319 86.5568C45.4334 86.9231 45.9303 87.0643 46.3794 86.9114L59.4722 82.4534C59.9142 82.3029 60.0368 81.7359 59.6964 81.4163Z" fill="#A4A7AE"/>
<path d="M66.3968 84.9743C65.9197 84.5922 65.2779 84.4864 64.7034 84.6952L50.327 89.9203C49.7628 90.1254 49.593 90.8412 50.005 91.2778C50.3202 91.6119 50.8042 91.7259 51.2354 91.5677L66.2181 86.0696C66.6839 85.8987 66.7841 85.2844 66.3968 84.9743Z" fill="#A4A7AE"/>
<path d="M71.4228 95.7598C70.9809 95.2713 70.2844 95.1043 69.6689 95.3391L61.4528 98.4744C60.9483 98.667 60.7664 99.2875 61.0872 99.7219C61.3877 100.129 61.9236 100.285 62.3955 100.102L71.2019 96.6911C71.5817 96.544 71.6961 96.0619 71.4228 95.7598Z" fill="#A4A7AE"/>
<path d="M178.325 90.2227C190.82 96.0673 204.246 99.6652 217.989 100.851C216.132 105.168 202.938 126.775 163.771 144.579C162.712 144.742 138.254 133.364 124.832 125.562C125.288 126.213 166.524 111.04 178.325 90.2227Z" fill="#D5D7DA"/>
<path d="M177.356 100.967C177.931 100.568 178.659 100.46 179.325 100.675L201.185 107.748C201.968 108.001 202.247 108.966 201.72 109.598C201.296 110.107 200.601 110.302 199.974 110.087L177.556 102.408C176.924 102.192 176.806 101.348 177.356 100.967Z" fill="#A4A7AE"/>
<path d="M171.236 106.787C171.79 106.266 172.586 106.093 173.307 106.335L188.441 111.428C189.108 111.653 189.344 112.476 188.896 113.02C188.531 113.464 187.928 113.635 187.384 113.45L171.508 108.044C170.972 107.862 170.823 107.174 171.236 106.787Z" fill="#A4A7AE"/>
<path d="M164.949 111.623C165.527 111.159 166.306 111.031 167.002 111.284L184.434 117.62C185.119 117.869 185.325 118.736 184.825 119.266C184.443 119.671 183.856 119.809 183.333 119.617L165.166 112.951C164.601 112.743 164.479 111.999 164.949 111.623Z" fill="#A4A7AE"/>
<path d="M150.793 121.289C151.329 120.697 152.173 120.494 152.92 120.779L162.882 124.581C163.494 124.814 163.714 125.567 163.326 126.093C162.961 126.587 162.311 126.776 161.739 126.554L151.061 122.418C150.6 122.24 150.462 121.655 150.793 121.289Z" fill="#A4A7AE"/>
<path d="M157.297 116.128C157.886 115.758 158.614 115.681 159.268 115.92L182.223 124.313C182.956 124.581 183.134 125.538 182.546 126.052C182.156 126.392 181.613 126.492 181.128 126.313L157.449 117.59C156.81 117.355 156.72 116.489 157.297 116.128Z" fill="#A4A7AE"/>
<path d="M76.3945 87.3303C75.9081 87.0252 75.3081 86.9621 74.7689 87.1592L55.8381 94.0809C55.233 94.3021 55.0865 95.091 55.5717 95.5148C55.8926 95.7951 56.3409 95.8778 56.7408 95.7305L76.269 88.5368C76.7956 88.3428 76.8699 87.6285 76.3945 87.3303Z" fill="#A4A7AE"/>
<path fill-rule="evenodd" clip-rule="evenodd" d="M164.062 54.2395C164.343 54.5207 164.501 54.902 164.501 55.2995C164.501 55.697 164.343 56.0782 164.062 56.3595L151.868 68.5535C151.727 68.6941 151.56 68.8053 151.376 68.8806C151.192 68.956 150.994 68.9939 150.795 68.9922C150.596 68.9906 150.4 68.9493 150.217 68.8709C150.034 68.7925 149.869 68.6784 149.73 68.5355L144.924 63.5675C144.65 63.2811 144.5 62.8978 144.508 62.5015C144.516 62.1052 144.68 61.728 144.965 61.4523C145.25 61.1767 145.632 61.025 146.028 61.0305C146.425 61.0359 146.803 61.1981 147.08 61.4815L150.826 65.3535L161.942 54.2395C162.223 53.9586 162.605 53.8008 163.002 53.8008C163.4 53.8008 163.781 53.9586 164.062 54.2395Z" fill="#FDFDFD"/>
</svg>
