<svg width="242" height="209" viewBox="0 0 242 209" fill="none" xmlns="http://www.w3.org/2000/svg">
<path d="M8.90259 96.0273V98.1806" stroke="#252B37" stroke-width="3.38308" stroke-linecap="round"/>
<path d="M4.06299 97.1934L5.8244 99.0047" stroke="#252B37" stroke-width="3.38308" stroke-linecap="round"/>
<path d="M2.00049 102.016H4.4911" stroke="#252B37" stroke-width="3.38308" stroke-linecap="round"/>
<path d="M3.85986 106.923L5.62128 105.111" stroke="#252B37" stroke-width="3.38308" stroke-linecap="round"/>
<path d="M8.90259 107.513V105.359" stroke="#252B37" stroke-width="3.38308" stroke-linecap="round"/>
<path d="M12.4959 106.076L11.0588 104.641" stroke="#252B37" stroke-width="3.38308" stroke-linecap="round"/>
<path d="M15.3668 102.486H13.2112" stroke="#252B37" stroke-width="3.38308" stroke-linecap="round"/>
<path d="M13.9295 97.4629L12.4924 98.8984" stroke="#252B37" stroke-width="3.38308" stroke-linecap="round"/>
<path d="M124.582 2V3.43553" stroke="#252B37" stroke-width="3.38308" stroke-linecap="round"/>
<path d="M120.274 6.30664H121.711" stroke="#252B37" stroke-width="3.38308" stroke-linecap="round"/>
<path d="M124.582 10.6133V9.17773" stroke="#252B37" stroke-width="3.38308" stroke-linecap="round"/>
<path d="M128.176 6.30664H126.739" stroke="#252B37" stroke-width="3.38308" stroke-linecap="round"/>
<path d="M41.2346 62.293V64.4463" stroke="#252B37" stroke-width="3.38308" stroke-linecap="round"/>
<path d="M34.7659 68.752H36.9214" stroke="#252B37" stroke-width="3.38308" stroke-linecap="round"/>
<path d="M41.2346 74.4951V72.3418" stroke="#252B37" stroke-width="3.38308" stroke-linecap="round"/>
<path d="M46.9839 68.752H44.8284" stroke="#252B37" stroke-width="3.38308" stroke-linecap="round"/>
<path d="M195.903 140.559C197.62 140.559 199.013 141.95 199.013 143.666C199.013 145.382 197.62 146.773 195.903 146.773C194.186 146.773 192.793 145.382 192.793 143.666" stroke="#252B37" stroke-width="3.38308" stroke-linecap="round"/>
<path fill-rule="evenodd" clip-rule="evenodd" d="M210.133 112.368C211.98 111.792 214.81 109.536 215.465 107.109C216.059 109.255 218.55 111.792 220.797 111.984C218.267 112.879 215.849 115.537 215.465 117.625C215.204 115.497 211.859 112.678 210.133 112.368Z" fill="#252B37"/>
<path fill-rule="evenodd" clip-rule="evenodd" d="M20.594 139.601C21.5175 139.314 22.9321 138.186 23.2597 136.973C23.5568 138.045 24.8018 139.314 25.9254 139.41C24.6609 139.857 23.4518 141.186 23.2597 142.23C23.1291 141.166 21.4565 139.756 20.594 139.601Z" fill="#252B37"/>
<path fill-rule="evenodd" clip-rule="evenodd" d="M37.7333 39.7531C37.7333 41.0843 36.6536 42.1625 35.322 42.1625C33.9897 42.1625 32.9106 41.0843 32.9106 39.7531C32.9106 38.4226 33.9897 37.3438 35.322 37.3438C36.6536 37.3438 37.7333 38.4226 37.7333 39.7531Z" fill="#252B37"/>
<path fill-rule="evenodd" clip-rule="evenodd" d="M198.749 46.2224C198.749 48.4465 196.944 50.2494 194.719 50.2494C192.492 50.2494 190.688 48.4465 190.688 46.2224C190.688 43.9982 192.492 42.1953 194.719 42.1953C196.944 42.1953 198.749 43.9982 198.749 46.2224Z" fill="#252B37"/>
<path fill-rule="evenodd" clip-rule="evenodd" d="M227.523 66.5792C227.523 68.3438 226.091 69.7737 224.326 69.7737C222.56 69.7737 221.129 68.3438 221.129 66.5792C221.129 64.8147 222.56 63.3848 224.326 63.3848C226.091 63.3848 227.523 64.8147 227.523 66.5792Z" fill="#252B37"/>
<path fill-rule="evenodd" clip-rule="evenodd" d="M82.8 184.506C82.8 185.618 81.8978 186.52 80.7846 186.52C79.672 186.52 78.7698 185.618 78.7698 184.506C78.7698 183.394 79.672 182.492 80.7846 182.492C81.8978 182.492 82.8 183.394 82.8 184.506Z" stroke="#252B37" stroke-width="3.38308" stroke-linecap="round"/>
<path fill-rule="evenodd" clip-rule="evenodd" d="M81.6002 24.2746C81.6002 25.6058 80.5205 26.684 79.1889 26.684C77.8573 26.684 76.7776 25.6058 76.7776 24.2746C76.7776 22.9441 77.8573 21.8652 79.1889 21.8652C80.5205 21.8652 81.6002 22.9441 81.6002 24.2746Z" stroke="#252B37" stroke-width="3.38308" stroke-linecap="round"/>
<path fill-rule="evenodd" clip-rule="evenodd" d="M143.106 206.806C141.565 207.392 139.841 206.618 139.255 205.079C138.669 203.54 139.442 201.816 140.984 201.231C142.524 200.645 144.248 201.418 144.834 202.958C145.421 204.497 144.647 206.22 143.106 206.806Z" stroke="#252B37" stroke-width="3.38308" stroke-linecap="round"/>
<g clip-path="url(#clip0_15626_83311)">
<path d="M173.167 61.4375H73.3184C71.9713 61.4383 70.6797 61.9738 69.7271 62.9264C68.7746 63.8789 68.2391 65.1706 68.2383 66.5176V158.13C68.2391 159.477 68.7746 160.769 69.7271 161.721C70.6797 162.674 71.9713 163.209 73.3184 163.21H173.167C174.515 163.209 175.806 162.674 176.759 161.721C177.712 160.769 178.247 159.477 178.248 158.13V66.5176C178.247 65.1705 177.712 63.8787 176.759 62.9262C175.806 61.9736 174.515 61.4382 173.167 61.4375Z" fill="#252B37"/>
<path d="M166.594 131.376H79.8926C77.0871 131.376 74.8125 129.101 74.8125 126.296V45.3516C74.8125 42.5461 77.0871 40.2715 79.8926 40.2715H166.594C169.4 40.2715 171.674 42.5461 171.674 45.3516V126.296C171.674 129.101 169.4 131.376 166.594 131.376Z" fill="#414651"/>
<path d="M76.4209 127.904V46.96C76.4209 44.1545 78.6955 41.8799 81.501 41.8799H168.203C169.194 41.8799 170.115 42.1679 170.896 42.6584C169.998 41.2262 168.409 40.2715 166.594 40.2715H79.8926C77.0871 40.2715 74.8125 42.5461 74.8125 45.3516V126.296C74.8125 128.111 75.7673 129.699 77.1994 130.598C76.7089 129.816 76.4209 128.895 76.4209 127.904V127.904Z" fill="#717680"/>
<path d="M155.928 57.373H90.5625V61.0982H155.928V57.373ZM155.928 71.5968H90.5625V75.3219H155.928V71.5968ZM155.928 85.8237H90.5625V89.5488H155.928V85.8237ZM155.928 100.047H90.5625V103.773H155.928V100.047Z" fill="#181D27"/>
<path d="M98.3516 88.0234L114.777 104.449H98.3516V88.0234Z" fill="url(#paint0_linear_15626_83311)"/>
<path d="M178.249 105.805V68.0117L171.676 61.4375V105.804H178.249V105.805Z" fill="#252B37"/>
<path d="M185.949 109.223L178.867 159.359C178.512 161.866 176.367 163.729 173.836 163.729H72.6523C70.1211 163.729 67.9761 161.866 67.622 159.359L58.0508 91.6132C57.6191 88.5549 59.9923 85.8223 63.0811 85.8223H94.3289C96.86 85.8223 99.0051 87.6851 99.3592 90.1911L100.613 99.0629C100.968 101.569 103.113 103.432 105.644 103.432H180.92C184.008 103.432 186.381 106.165 185.95 109.223H185.949Z" fill="#535862"/>
<path d="M160.855 141.367H85.6346C85.2223 141.367 84.8242 141.216 84.5148 140.944C84.2055 140.671 84.0062 140.295 83.9543 139.886L83.0132 132.435C82.9833 132.196 83.0044 131.954 83.0752 131.725C83.1459 131.495 83.2647 131.283 83.4236 131.103C83.5825 130.923 83.7779 130.778 83.9968 130.68C84.2157 130.581 84.4532 130.529 84.6934 130.529H161.796C162.036 130.529 162.274 130.581 162.493 130.68C162.712 130.778 162.907 130.923 163.066 131.103C163.225 131.283 163.344 131.495 163.414 131.725C163.485 131.954 163.506 132.196 163.476 132.435L162.535 139.886C162.483 140.295 162.284 140.671 161.975 140.944C161.665 141.216 161.267 141.367 160.855 141.367Z" fill="#0A0D12"/>
</g>
<defs>
<linearGradient id="paint0_linear_15626_83311" x1="109.204" y1="107.085" x2="89.3496" y2="87.2313" gradientUnits="userSpaceOnUse">
<stop stop-color="#C2CECE" stop-opacity="0"/>
<stop offset="0.179" stop-color="#AFBCBC" stop-opacity="0.179"/>
<stop offset="1" stop-color="#5B6A6A"/>
</linearGradient>
<clipPath id="clip0_15626_83311">
<rect width="128" height="128" fill="white" transform="translate(58 38)"/>
</clipPath>
</defs>
</svg>
