<svg width="106" height="79" viewBox="0 0 106 79" fill="none" xmlns="http://www.w3.org/2000/svg">
<g filter="url(#filter0_dd_15626_84135)">
<path d="M51.2984 19.8C51.2984 17.6461 53.0445 15.9 55.1984 15.9H74.3984C74.5439 15.9 74.6834 15.9578 74.7863 16.0607L87.7378 29.0121C87.8406 29.115 87.8984 29.2545 87.8984 29.4V58.2C87.8984 60.3539 86.1524 62.1 83.9984 62.1H55.1984C53.0445 62.1 51.2984 60.3539 51.2984 58.2V19.8Z" fill="#414651" stroke="#252B37" stroke-width="1.8"/>
<path d="M74.3984 15.6001V24.6001C74.3984 27.2511 76.5475 29.4001 79.1984 29.4001H88.1984" stroke="#252B37" stroke-width="1.8"/>
<path d="M43.1992 38.7C43.1992 36.4908 44.9901 34.7 47.1992 34.7H70.3992C72.6084 34.7 74.3992 36.4908 74.3992 38.7V53.7C74.3992 55.9091 72.6084 57.7 70.3992 57.7H47.1992C44.9901 57.7 43.1992 55.9091 43.1992 53.7V38.7Z" fill="#28A3FB"/>
<path d="M51.1806 41.9727H53.0044V48.0579C53.0044 48.6204 52.878 49.109 52.6252 49.5238C52.3752 49.9386 52.0272 50.2582 51.5811 50.4826C51.1351 50.7071 50.6167 50.8193 50.0257 50.8193C49.5002 50.8193 49.0229 50.7269 48.5939 50.5423C48.1678 50.3548 47.8297 50.0707 47.5797 49.69C47.3297 49.3065 47.2061 48.825 47.209 48.2454H49.0456C49.0513 48.4755 49.0982 48.673 49.1863 48.8377C49.2772 48.9997 49.4007 49.1247 49.557 49.2127C49.7161 49.298 49.9036 49.3406 50.1195 49.3406C50.3468 49.3406 50.5385 49.2923 50.6948 49.1957C50.8539 49.0963 50.9746 48.9514 51.057 48.761C51.1394 48.5707 51.1806 48.3363 51.1806 48.0579V41.9727ZM54.53 50.7V41.9727H57.9732C58.6351 41.9727 59.199 42.0991 59.665 42.3519C60.1309 42.6019 60.486 42.95 60.7303 43.396C60.9775 43.8392 61.101 44.3505 61.101 44.9301C61.101 45.5096 60.976 46.021 60.726 46.4642C60.476 46.9073 60.1138 47.2525 59.6394 47.4997C59.1678 47.7468 58.5968 47.8704 57.9263 47.8704H55.7317V46.3917H57.628C57.9831 46.3917 58.2757 46.3306 58.5059 46.2085C58.7388 46.0835 58.9121 45.9116 59.0257 45.6928C59.1422 45.4713 59.2005 45.217 59.2005 44.9301C59.2005 44.6403 59.1422 44.3875 59.0257 44.1715C58.9121 43.9528 58.7388 43.7838 58.5059 43.6644C58.2729 43.5423 57.9775 43.4812 57.6195 43.4812H56.3752V50.7H54.53ZM68.0865 44.7937C68.0268 44.5863 67.943 44.4031 67.8351 44.244C67.7271 44.0821 67.595 43.9457 67.4387 43.8349C67.2853 43.7213 67.1092 43.6346 66.9103 43.575C66.7143 43.5153 66.497 43.4855 66.2583 43.4855C65.8123 43.4855 65.4203 43.5963 65.0822 43.8178C64.747 44.0394 64.4856 44.3619 64.2981 44.7852C64.1106 45.2056 64.0169 45.7198 64.0169 46.3278C64.0169 46.9357 64.1092 47.4528 64.2939 47.8789C64.4785 48.3051 64.7399 48.6303 65.0779 48.8548C65.416 49.0764 65.8152 49.1872 66.2754 49.1872C66.693 49.1872 67.0495 49.1133 67.345 48.9656C67.6433 48.815 67.8706 48.6034 68.0268 48.3306C68.1859 48.0579 68.2654 47.7355 68.2654 47.3633L68.6404 47.4187H66.3904V46.0295H70.0424V47.1289C70.0424 47.896 69.8805 48.5551 69.5566 49.1062C69.2328 49.6545 68.7868 50.0778 68.2186 50.3761C67.6504 50.6715 66.9998 50.8193 66.2669 50.8193C65.4487 50.8193 64.7299 50.6389 64.1106 50.2781C63.4913 49.9144 63.0083 49.3988 62.6618 48.7312C62.318 48.0607 62.1461 47.2653 62.1461 46.3448C62.1461 45.6375 62.2484 45.0068 62.4529 44.4528C62.6603 43.896 62.9501 43.4244 63.3223 43.038C63.6944 42.6517 64.1277 42.3576 64.622 42.1559C65.1163 41.9542 65.6518 41.8534 66.2285 41.8534C66.7228 41.8534 67.1831 41.9258 67.6092 42.0707C68.0353 42.2127 68.4132 42.4144 68.7427 42.6758C69.0751 42.9372 69.3464 43.2482 69.5566 43.609C69.7669 43.967 69.9018 44.3619 69.9615 44.7937H68.0865Z" fill="white"/>
</g>
<defs>
<filter id="filter0_dd_15626_84135" x="-1.2" y="0.599999" width="134.4" height="134.4" filterUnits="userSpaceOnUse" color-interpolation-filters="sRGB">
<feFlood flood-opacity="0" result="BackgroundImageFix"/>
<feColorMatrix in="SourceAlpha" type="matrix" values="0 0 0 0 0 0 0 0 0 0 0 0 0 0 0 0 0 0 127 0" result="hardAlpha"/>
<feMorphology radius="2.4" operator="erode" in="SourceAlpha" result="effect1_dropShadow_15626_84135"/>
<feOffset dy="4.8"/>
<feGaussianBlur stdDeviation="2.4"/>
<feComposite in2="hardAlpha" operator="out"/>
<feColorMatrix type="matrix" values="0 0 0 0 0.0392157 0 0 0 0 0.0496732 0 0 0 0 0.0705882 0 0 0 0.04 0"/>
<feBlend mode="normal" in2="BackgroundImageFix" result="effect1_dropShadow_15626_84135"/>
<feColorMatrix in="SourceAlpha" type="matrix" values="0 0 0 0 0 0 0 0 0 0 0 0 0 0 0 0 0 0 127 0" result="hardAlpha"/>
<feMorphology radius="14.4" operator="erode" in="SourceAlpha" result="effect2_dropShadow_15626_84135"/>
<feOffset dy="28.8"/>
<feGaussianBlur stdDeviation="28.8"/>
<feComposite in2="hardAlpha" operator="out"/>
<feColorMatrix type="matrix" values="0 0 0 0 0.0392157 0 0 0 0 0.0496732 0 0 0 0 0.0705882 0 0 0 0.18 0"/>
<feBlend mode="normal" in2="effect1_dropShadow_15626_84135" result="effect2_dropShadow_15626_84135"/>
<feBlend mode="normal" in="SourceGraphic" in2="effect2_dropShadow_15626_84135" result="shape"/>
</filter>
</defs>
</svg>
