<svg width="48" height="48" viewBox="0 0 48 48" fill="none" xmlns="http://www.w3.org/2000/svg">
<path d="M9.29844 4.8C9.29844 2.64609 11.0445 0.9 13.1984 0.9H32.3984C32.5439 0.9 32.6834 0.957791 32.7863 1.06066L45.7378 14.0121C45.8406 14.115 45.8984 14.2545 45.8984 14.4V43.2C45.8984 45.3539 44.1524 47.1 41.9984 47.1H13.1984C11.0445 47.1 9.29844 45.3539 9.29844 43.2V4.8Z" fill="#414651" stroke="#252B37" stroke-width="1.8"/>
<path d="M32.3984 0.599609V9.59961C32.3984 12.2506 34.5475 14.3996 37.1984 14.3996H46.1984" stroke="#252B37" stroke-width="1.8"/>
<path d="M1.19922 23.7008C1.19922 22.3753 2.27374 21.3008 3.59922 21.3008H29.9992C31.3247 21.3008 32.3992 22.3753 32.3992 23.7008V38.7008C32.3992 40.0263 31.3247 41.1008 29.9992 41.1008H3.59922C2.27373 41.1008 1.19922 40.0263 1.19922 38.7008V23.7008Z" fill="#D92D20"/>
<path d="M5.79759 35.7008V26.9735H9.24077C9.9027 26.9735 10.4666 27.1 10.9325 27.3528C11.3984 27.6028 11.7536 27.9508 11.9979 28.3968C12.245 28.84 12.3686 29.3514 12.3686 29.9309C12.3686 30.5105 12.2436 31.0218 11.9936 31.465C11.7436 31.9082 11.3814 32.2534 10.907 32.5005C10.4354 32.7477 9.86435 32.8713 9.19389 32.8713H6.99929V31.3926H8.8956C9.25071 31.3926 9.54332 31.3315 9.77344 31.2093C10.0064 31.0843 10.1797 30.9125 10.2933 30.6937C10.4098 30.4721 10.468 30.2179 10.468 29.9309C10.468 29.6411 10.4098 29.3883 10.2933 29.1724C10.1797 28.9536 10.0064 28.7846 9.77344 28.6653C9.54048 28.5431 9.24503 28.4821 8.88707 28.4821H7.64276V35.7008H5.79759ZM16.6609 35.7008H13.5671V26.9735H16.6864C17.5643 26.9735 18.32 27.1482 18.9535 27.4977C19.587 27.8443 20.0742 28.3429 20.4151 28.9934C20.7589 29.644 20.9308 30.4224 20.9308 31.3286C20.9308 32.2377 20.7589 33.019 20.4151 33.6724C20.0742 34.3258 19.5842 34.8272 18.945 35.1767C18.3086 35.5261 17.5472 35.7008 16.6609 35.7008ZM15.4123 34.1198H16.5842C17.1296 34.1198 17.5884 34.0232 17.9606 33.8301C18.3356 33.634 18.6168 33.3315 18.8043 32.9224C18.9947 32.5105 19.0898 31.9792 19.0898 31.3286C19.0898 30.6838 18.9947 30.1568 18.8043 29.7477C18.6168 29.3386 18.337 29.0375 17.9648 28.8443C17.5927 28.6511 17.1339 28.5545 16.5884 28.5545H15.4123V34.1198ZM22.2976 35.7008V26.9735H28.076V28.4948H24.1428V30.5744H27.6925V32.0957H24.1428V35.7008H22.2976Z" fill="white"/>
</svg>
