<svg width="74" height="74" viewBox="0 0 74 74" fill="none" xmlns="http://www.w3.org/2000/svg">
<g style="mix-blend-mode:luminosity">
<g clip-path="url(#clip0_15371_88094)">
<path d="M33.7686 45.5039L41.225 70.7316L47.3507 61.875L57.4695 65.6327L49.4804 41.2103L33.7686 45.5039Z" fill="#632ABB"/>
<path d="M24.7164 42.8198L16.7273 66.1686L27.6452 62.4118L33.2372 71L42.558 46.0407L24.7164 42.8198Z" fill="#8137F2"/>
<path d="M12.997 26.4488C12.997 25.3206 15.7258 24.4004 15.88 23.3146C16.037 22.2023 13.6764 20.5476 13.9839 19.4919C14.2969 18.4173 17.1724 18.3099 17.6284 17.306C18.0892 16.2907 16.2902 14.0295 16.8846 13.0981C17.4827 12.161 20.2712 12.8767 20.9936 12.0376C21.7169 11.1975 20.6198 8.51721 21.4534 7.78827C22.2851 7.06121 24.7625 8.53511 25.6923 7.93142C26.6165 7.3315 26.31 4.4487 27.3174 3.98345C28.3136 3.52386 30.277 5.64194 31.3433 5.32644C32.3909 5.01848 32.9067 2.16486 34.0113 2.00664C35.0888 1.85219 36.3775 4.4421 37.497 4.4421C38.6166 4.4421 39.9052 1.85219 40.9827 2.00664C42.0864 2.16486 42.6032 5.01848 43.6517 5.32832C44.718 5.64382 46.6814 3.52575 47.6775 3.98534C48.6849 4.44964 48.3794 7.33339 49.3027 7.93331C50.2325 8.53605 52.7089 7.0631 53.5416 7.79015C54.3752 8.5191 53.2781 11.1994 54.0014 12.0395C54.7228 12.8777 57.5114 12.1629 58.1104 13.0999C58.7057 14.0314 56.9058 16.2917 57.3665 17.3078C57.8226 18.3118 60.698 18.4192 61.0111 19.4937C61.3186 20.5504 58.958 22.2042 59.115 23.3164C59.2682 24.4023 61.9979 25.3225 61.9979 26.4507C61.9979 27.579 59.2692 28.4991 59.115 29.585C58.958 30.6972 61.3186 32.3519 61.0111 33.4077C60.698 34.4823 57.8226 34.5896 57.3665 35.5936C56.9058 36.6088 58.7047 38.8701 58.1104 39.8015C57.5123 40.7386 54.7237 40.0228 54.0014 40.8619C53.2781 41.702 54.3752 44.3823 53.5416 45.1113C52.7099 45.8383 50.2325 44.3644 49.3027 44.9681C48.3784 45.568 48.6849 48.4508 47.6775 48.9161C46.6814 49.3757 44.718 47.2576 43.6517 47.5731C42.6032 47.8829 42.0873 50.7356 40.9827 50.8948C39.9052 51.0492 38.6166 48.4593 37.497 48.4593C36.3775 48.4593 35.0888 51.0492 34.0113 50.8948C32.9077 50.7366 32.3909 47.8829 31.3424 47.5731C30.2761 47.2576 28.3127 49.3757 27.3165 48.9161C26.3091 48.4518 26.6147 45.568 25.6914 44.9681C24.7615 44.3654 22.2851 45.8383 21.4525 45.1113C20.6189 44.3823 21.716 41.702 20.9927 40.8619C20.2712 40.0237 17.4827 40.7386 16.8836 39.8015C16.2884 38.8701 18.0882 36.6098 17.6275 35.5936C17.1715 34.5896 14.296 34.4823 13.9829 33.4077C13.6755 32.351 16.036 30.6972 15.8791 29.585C15.7258 28.4991 12.9961 27.579 12.9961 26.4507L12.997 26.4488Z" fill="#C38144"/>
<path d="M37.4989 46.3092C48.3827 46.3092 57.2058 37.4174 57.2058 26.4488C57.2058 15.4802 48.3827 6.58838 37.4989 6.58838C26.6151 6.58838 17.792 15.4802 17.792 26.4488C17.792 37.4174 26.6151 46.3092 37.4989 46.3092Z" fill="#DCA16A"/>
<path d="M37.4997 46.7114C32.1291 46.7114 27.08 44.6036 23.2831 40.7762C19.4852 36.9488 17.3938 31.8603 17.3938 26.4488C17.3938 21.0373 19.4852 15.9479 23.2831 12.1214C27.0809 8.294 32.1301 6.18628 37.4997 6.18628C42.8694 6.18628 47.9195 8.294 51.7164 12.1214C55.5143 15.9488 57.6057 21.0373 57.6057 26.4488C57.6057 31.8603 55.5143 36.9497 51.7164 40.7762C47.9186 44.6036 42.8694 46.7114 37.4997 46.7114ZM37.4997 6.99151C26.8538 6.99151 18.1928 15.72 18.1928 26.4488C18.1928 37.1777 26.8538 45.9061 37.4997 45.9061C48.1457 45.9061 56.8067 37.1777 56.8067 26.4488C56.8067 15.72 48.1457 6.99151 37.4997 6.99151Z" fill="#C38144"/>
<path d="M37.5011 40.6726C45.296 40.6726 51.615 34.3044 51.615 26.4488C51.615 18.5932 45.296 12.225 37.5011 12.225C29.7062 12.225 23.3872 18.5932 23.3872 26.4488C23.3872 34.3044 29.7062 40.6726 37.5011 40.6726Z" fill="#F7BA82"/>
<path d="M49.2189 20.8131C49.2189 19.9071 49.131 19.0228 48.9703 18.1639C46.4088 14.5691 42.2278 12.225 37.5011 12.225C29.7064 12.225 23.3872 18.5933 23.3872 26.4488C23.3872 27.3548 23.4751 28.2391 23.6358 29.098C26.1973 32.6928 30.3783 35.0369 35.105 35.0369C42.8997 35.0369 49.2189 28.6686 49.2189 20.8131Z" fill="#F0B074"/>
<path d="M37.4994 41.088C29.4898 41.088 22.9744 34.5209 22.9744 26.4498C22.9744 18.3787 29.4898 11.8107 37.4994 11.8107C45.5091 11.8107 52.0245 18.3777 52.0245 26.4489C52.0245 34.52 45.5082 41.087 37.4994 41.087V41.088ZM37.4994 12.6404C29.9439 12.6404 23.7967 18.8355 23.7967 26.4498C23.7967 34.0641 29.9439 40.2592 37.4994 40.2592C45.0549 40.2592 51.2021 34.0641 51.2021 26.4498C51.2021 18.8355 45.0549 12.6404 37.4994 12.6404Z" fill="#C38144"/>
<path d="M43 20L31 32M31 20L43 32" stroke="#717680" stroke-width="2" stroke-linecap="round" stroke-linejoin="round"/>
</g>
</g>
<defs>
<clipPath id="clip0_15371_88094">
<rect width="49" height="69" fill="white" transform="translate(13 2)"/>
</clipPath>
</defs>
</svg>
