<svg width="74" height="74" viewBox="0 0 74 74" fill="none" xmlns="http://www.w3.org/2000/svg">
<g clip-path="url(#clip0_15371_85704)">
<path d="M40.304 42.9088L54.0731 70.3828L58.1967 61.5238L67.9632 63.2429L53.2798 36.7073L40.304 42.9088Z" fill="#8137F2"/>
<path d="M33.6594 42.9088L19.8891 70.3828L15.7666 61.5238L5.99902 63.2429L20.6836 36.7073L33.6594 42.9088Z" fill="#8137F2"/>
<path d="M44.4393 46.2871L44.7358 73L36.9803 67.7303L29.0322 72.8803L29.9846 46.5395L44.4393 46.2871Z" fill="#632ABB"/>
<path d="M9.03711 27.7469L12.4116 24.531L9.9863 20.5644L14.0878 18.3248L12.7897 13.87L17.3379 12.7623L17.2472 8.12672L21.9303 8.21653L23.0505 3.71448L27.551 4.99946L29.8123 0.939558L33.8197 3.34027L37.0686 0L40.3174 3.34027L44.3248 0.939558L46.5872 4.99946L51.0878 3.71448L52.2068 8.21653L56.8899 8.12672L56.7992 12.7623L61.3486 13.8712L60.0504 18.326L64.152 20.5644L61.7255 24.531L65.1 27.7469L61.7255 30.9628L64.152 34.9295L60.0493 37.169L61.3474 41.6238L56.7992 42.7315L56.8899 47.3671L52.2068 47.2773L51.0878 51.7805L46.5872 50.4955L44.3248 54.5554L40.3174 52.1535L37.0686 55.4938L33.8197 52.1535L29.8123 54.5554L27.5499 50.4944L23.0493 51.7793L21.9303 47.2773L17.2472 47.3671L17.3379 42.7315L12.7897 41.6238L14.0878 37.169L9.9863 34.9295L12.4116 30.9628L9.03711 27.7469Z" fill="#FFCE45"/>
<path d="M10.8354 27.7469L13.9936 24.7371L11.723 21.0249L15.5616 18.9293L14.3472 14.76L18.6046 13.7238L18.5197 9.38521L22.9028 9.46926L23.9497 5.25507L28.1617 6.45715L30.2788 2.65746L34.029 4.90503L37.0697 1.77893L40.1104 4.90503L43.8606 2.65746L45.9777 6.45715L50.1897 5.25507L51.2367 9.46926L55.6197 9.38521L55.5359 13.7238L59.7922 14.76L58.5778 18.9293L62.4164 21.0249L60.1458 24.7371L63.304 27.7469L60.1458 30.7567L62.4164 34.4689L58.5778 36.5645L59.7922 40.7338L55.5348 41.77L55.6197 46.1086L51.2367 46.0257L50.1897 50.2387L45.9777 49.0366L43.8606 52.8363L40.1104 50.5888L37.0697 53.7149L34.029 50.5888L30.2788 52.8363L28.1617 49.0366L23.9497 50.2387L22.9028 46.0245L18.5197 46.1086L18.6046 41.77L14.3472 40.7338L15.5616 36.5645L11.723 34.4689L13.9936 30.7567L10.8354 27.7469Z" fill="#FEA211"/>
<path d="M51.3706 41.9035C59.2694 34.0848 59.2694 21.4083 51.3706 13.5897C43.4718 5.77104 30.6653 5.77104 22.7664 13.5897C14.8676 21.4083 14.8676 34.0848 22.7664 41.9035C30.6653 49.7221 43.4718 49.7221 51.3706 41.9035Z" fill="#FFD733"/>
<path d="M37.0695 48.5151C25.5 48.5151 16.0884 39.1989 16.0884 27.7469C16.0884 16.2949 25.5012 6.97876 37.0695 6.97876C48.6378 6.97876 58.0506 16.2949 58.0506 27.7469C58.0506 39.1989 48.639 48.5151 37.0695 48.5151ZM37.0695 7.34837C25.7059 7.34837 16.4606 16.4998 16.4606 27.7481C16.4606 38.9963 25.7059 48.1478 37.0695 48.1478C48.4331 48.1478 57.6784 38.9963 57.6784 27.7481C57.6784 16.4998 48.4331 7.34837 37.0695 7.34837Z" fill="#EED078"/>
<path d="M37.069 46.9227C26.3871 46.9227 17.6978 38.3205 17.6978 27.7481C17.6978 17.1758 26.3871 8.57239 37.069 8.57239C47.7509 8.57239 56.4402 17.1746 56.4402 27.747C56.4402 38.3193 47.7497 46.9216 37.069 46.9216V46.9227ZM37.069 10.2005C27.2944 10.2005 19.3426 18.0716 19.3426 27.7481C19.3426 37.4247 27.2944 45.2958 37.069 45.2958C46.8436 45.2958 54.7954 37.4247 54.7954 27.7481C54.7954 18.0716 46.8436 10.2005 37.069 10.2005Z" fill="#CE7E1B"/>
<path d="M29.2842 39.9762C29.2842 39.9762 25.7747 40.6786 25.0942 37.0896C25.0942 37.0896 28.3955 37.6768 29.2842 39.9762Z" fill="#FFFAE2"/>
<path d="M30.586 40.1835C30.586 40.1835 28.2107 39.8289 28.5748 36.0154C28.5748 36.0154 30.6279 37.1426 30.586 40.1835Z" fill="#FFFAE2"/>
<path d="M26.5864 36.454C26.5864 36.454 23.006 36.4183 23.0944 32.7683C23.0944 32.7683 26.2002 34.0222 26.5864 36.454Z" fill="#FFFAE2"/>
<path d="M27.8172 36.9238C27.8172 36.9238 25.5687 36.089 26.7261 32.4332C26.7261 32.4332 28.4977 33.9589 27.8172 36.9238Z" fill="#FFFAE2"/>
<path d="M24.68 32.6577C24.68 32.6577 21.1705 31.9519 21.9569 28.3837C21.9569 28.3837 24.7661 30.1983 24.68 32.6577Z" fill="#FFFAE2"/>
<path d="M25.7988 33.3509C25.7988 33.3509 23.7504 32.1085 25.5871 28.7372C25.5871 28.7372 27.0342 30.5668 25.7988 33.3509Z" fill="#FFFAE2"/>
<path d="M23.5131 28.6428C23.5131 28.6428 20.3736 26.9387 22.1929 23.762C22.1929 23.762 24.332 26.3193 23.5131 28.6428Z" fill="#FFFAE2"/>
<path d="M24.3747 29.6319C24.3747 29.6319 22.7903 27.8449 25.5553 25.1632C25.5553 25.1632 26.3894 27.3359 24.3747 29.6319Z" fill="#FFFAE2"/>
<path d="M23.7212 24.3849C23.7212 24.3849 21.2505 21.8195 23.955 19.337C23.955 19.337 25.2124 22.4159 23.7212 24.3849Z" fill="#FFFAE2"/>
<path d="M24.2379 25.5869C24.2379 25.5869 23.2748 23.4084 26.7296 21.6813C26.7296 21.6813 26.8598 24.0014 24.2379 25.5869Z" fill="#FFFAE2"/>
<path d="M45.1311 39.9761C45.1311 39.9761 48.6406 40.6785 49.321 37.0895C49.321 37.0895 46.0198 37.6767 45.1311 39.9761Z" fill="#FFFAE2"/>
<path d="M43.8278 40.1834C43.8278 40.1834 46.2031 39.8288 45.839 36.0153C45.839 36.0153 43.7859 37.1425 43.8278 40.1834Z" fill="#FFFAE2"/>
<path d="M47.8308 36.4539C47.8308 36.4539 51.4112 36.4182 51.3228 32.7682C51.3228 32.7682 48.217 34.0221 47.8308 36.4539Z" fill="#FFFAE2"/>
<path d="M46.5987 36.9236C46.5987 36.9236 48.8473 36.0889 47.6898 32.4331C47.6898 32.4331 45.9182 33.9587 46.5987 36.9236Z" fill="#FFFAE2"/>
<path d="M49.7339 32.6576C49.7339 32.6576 53.2433 31.9518 52.457 28.3835C52.457 28.3835 49.6478 30.1982 49.7339 32.6576Z" fill="#FFFAE2"/>
<path d="M48.6155 33.3508C48.6155 33.3508 50.664 32.1084 48.8272 28.7371C48.8272 28.7371 47.3802 30.5667 48.6155 33.3508Z" fill="#FFFAE2"/>
<path d="M50.9019 28.6427C50.9019 28.6427 54.0414 26.9386 52.2221 23.7618C52.2221 23.7618 50.083 26.3191 50.9019 28.6427Z" fill="#FFFAE2"/>
<path d="M50.0407 29.6317C50.0407 29.6317 51.6251 27.8447 48.8601 25.1631C48.8601 25.1631 48.026 27.3358 50.0407 29.6317Z" fill="#FFFAE2"/>
<path d="M50.6935 24.3847C50.6935 24.3847 53.1642 21.8194 50.4596 19.3369C50.4596 19.3369 49.2022 22.4158 50.6935 24.3847Z" fill="#FFFAE2"/>
<path d="M50.1741 25.5869C50.1741 25.5869 51.1372 23.4084 47.6825 21.6813C47.6825 21.6813 47.5522 24.0014 50.1741 25.5869Z" fill="#FFFAE2"/>
<path d="M37.0689 49.0251C25.2157 49.0251 15.5725 39.4798 15.5725 27.7469C15.5725 16.0139 25.2157 6.46863 37.0689 6.46863C48.9222 6.46863 58.5654 16.0139 58.5654 27.7469C58.5654 39.4798 48.9222 49.0251 37.0689 49.0251ZM37.0689 8.64021C26.4254 8.64021 17.7664 17.2114 17.7664 27.7469C17.7664 38.2823 26.4254 46.8535 37.0689 46.8535C47.7125 46.8535 56.3715 38.2823 56.3715 27.7469C56.3715 17.2114 47.7125 8.64021 37.0689 8.64021Z" fill="#FCD575"/>
<path d="M27.3429 8.33862L28.5492 5.3219L29.6787 8.38007L31.7934 9.57409L29.6368 10.6921L28.4305 14.5287L27.301 10.6507L25.1863 9.45665L27.3429 8.33862Z" fill="white"/>
<path d="M37.3118 43.1195C38.2202 43.1195 38.9566 42.3906 38.9566 41.4914C38.9566 40.5922 38.2202 39.8633 37.3118 39.8633C36.4034 39.8633 35.667 40.5922 35.667 41.4914C35.667 42.3906 36.4034 43.1195 37.3118 43.1195Z" fill="#FFFAE2"/>
<path d="M41.4239 42.3043C42.1049 42.3043 42.657 41.7579 42.657 41.0838C42.657 40.4097 42.1049 39.8633 41.4239 39.8633C40.743 39.8633 40.1909 40.4097 40.1909 41.0838C40.1909 41.7579 40.743 42.3043 41.4239 42.3043Z" fill="#FFFAE2"/>
<path d="M32.7899 42.3043C33.4709 42.3043 34.0229 41.7579 34.0229 41.0838C34.0229 40.4097 33.4709 39.8633 32.7899 39.8633C32.1089 39.8633 31.5569 40.4097 31.5569 41.0838C31.5569 41.7579 32.1089 42.3043 32.7899 42.3043Z" fill="#FFFAE2"/>
<path d="M36.9016 12.3295L37.6158 14.5045H39.926L38.0567 15.8494L38.7709 18.0244L36.9016 16.6795L35.0323 18.0244L35.7465 15.8494L33.8772 14.5045H36.1874L36.9016 12.3295Z" fill="#FFFAE2"/>
</g>
<defs>
<clipPath id="clip0_15371_85704">
<rect width="62" height="73" fill="white" transform="translate(6)"/>
</clipPath>
</defs>
</svg>
