<svg width="74" height="74" viewBox="0 0 74 74" fill="none" xmlns="http://www.w3.org/2000/svg">
<g clip-path="url(#clip0_15371_85705)">
<path d="M33.772 45.5039L41.2284 70.7316L47.3541 61.875L57.473 65.6327L49.4839 41.2103L33.772 45.5039Z" fill="#632ABB"/>
<path d="M24.7201 42.8198L16.731 66.1686L27.6488 62.4118L33.2409 71L42.5617 46.0407L24.7201 42.8198Z" fill="#8137F2"/>
<path d="M12.9995 26.4488C12.9995 25.3206 15.7282 24.4004 15.8824 23.3146C16.0394 22.2023 13.6789 20.5476 13.9863 19.4919C14.2994 18.4173 17.1749 18.3099 17.6309 17.306C18.0916 16.2907 16.2927 14.0295 16.887 13.0981C17.4851 12.161 20.2737 12.8767 20.9961 12.0376C21.7194 11.1975 20.6223 8.51721 21.4558 7.78827C22.2875 7.06121 24.7649 8.53511 25.6948 7.93142C26.619 7.3315 26.3125 4.4487 27.3199 3.98345C28.3161 3.52386 30.2795 5.64194 31.3457 5.32644C32.3933 5.01848 32.9092 2.16486 34.0137 2.00664C35.0912 1.85219 36.3799 4.4421 37.4995 4.4421C38.619 4.4421 39.9077 1.85219 40.9852 2.00664C42.0888 2.16486 42.6056 5.01848 43.6541 5.32832C44.7204 5.64382 46.6838 3.52575 47.68 3.98534C48.6874 4.44964 48.3818 7.33339 49.3051 7.93331C50.2349 8.53605 52.7114 7.0631 53.544 7.79015C54.3776 8.5191 53.2805 11.1994 54.0038 12.0395C54.7252 12.8777 57.5138 12.1629 58.1128 13.0999C58.7081 14.0314 56.9083 16.2917 57.369 17.3078C57.825 18.3118 60.7005 18.4192 61.0135 19.4937C61.321 20.5504 58.9604 22.2042 59.1174 23.3164C59.2707 24.4023 62.0004 25.3225 62.0004 26.4507C62.0004 27.579 59.2716 28.4991 59.1174 29.585C58.9604 30.6972 61.321 32.3519 61.0135 33.4077C60.7005 34.4823 57.825 34.5896 57.369 35.5936C56.9083 36.6088 58.7072 38.8701 58.1128 39.8015C57.5148 40.7386 54.7262 40.0228 54.0038 40.8619C53.2805 41.702 54.3776 44.3823 53.544 45.1113C52.7123 45.8383 50.2349 44.3644 49.3051 44.9681C48.3809 45.568 48.6874 48.4508 47.68 48.9161C46.6838 49.3757 44.7204 47.2576 43.6541 47.5731C42.6056 47.8829 42.0898 50.7356 40.9852 50.8948C39.9077 51.0492 38.619 48.4593 37.4995 48.4593C36.3799 48.4593 35.0912 51.0492 34.0137 50.8948C32.9101 50.7366 32.3933 47.8829 31.3448 47.5731C30.2785 47.2576 28.3151 49.3757 27.3189 48.9161C26.3115 48.4518 26.6171 45.568 25.6938 44.9681C24.764 44.3654 22.2875 45.8383 21.4549 45.1113C20.6213 44.3823 21.7184 41.702 20.9951 40.8619C20.2737 40.0237 17.4851 40.7386 16.8861 39.8015C16.2908 38.8701 18.0907 36.6098 17.63 35.5936C17.1739 34.5896 14.2984 34.4823 13.9854 33.4077C13.6779 32.351 16.0385 30.6972 15.8815 29.585C15.7282 28.4991 12.9985 27.579 12.9985 26.4507L12.9995 26.4488Z" fill="#FCAB28"/>
<path d="M37.5001 46.3092C48.3839 46.3092 57.207 37.4174 57.207 26.4488C57.207 15.4802 48.3839 6.58838 37.5001 6.58838C26.6163 6.58838 17.7932 15.4802 17.7932 26.4488C17.7932 37.4174 26.6163 46.3092 37.5001 46.3092Z" fill="#FFCE45"/>
<path d="M37.4997 46.7114C32.1291 46.7114 27.08 44.6036 23.2831 40.7762C19.4852 36.9488 17.3938 31.8603 17.3938 26.4488C17.3938 21.0373 19.4852 15.9479 23.2831 12.1214C27.0809 8.294 32.1301 6.18628 37.4997 6.18628C42.8694 6.18628 47.9195 8.294 51.7164 12.1214C55.5142 15.9488 57.6057 21.0373 57.6057 26.4488C57.6057 31.8603 55.5142 36.9497 51.7164 40.7762C47.9186 44.6036 42.8694 46.7114 37.4997 46.7114ZM37.4997 6.99151C26.8538 6.99151 18.1928 15.72 18.1928 26.4488C18.1928 37.1777 26.8538 45.9061 37.4997 45.9061C48.1457 45.9061 56.8067 37.1777 56.8067 26.4488C56.8067 15.72 48.1457 6.99151 37.4997 6.99151Z" fill="#FCAB28"/>
<path d="M37.5021 40.6726C45.2969 40.6726 51.6159 34.3044 51.6159 26.4488C51.6159 18.5932 45.2969 12.225 37.5021 12.225C29.7072 12.225 23.3882 18.5932 23.3882 26.4488C23.3882 34.3044 29.7072 40.6726 37.5021 40.6726Z" fill="#FFD733"/>
<path d="M49.2199 20.8131C49.2199 19.9071 49.132 19.0228 48.9713 18.1639C46.4098 14.5691 42.2288 12.225 37.5021 12.225C29.7073 12.225 23.3882 18.5933 23.3882 26.4488C23.3882 27.3548 23.476 28.2391 23.6368 29.098C26.1982 32.6928 30.3792 35.0369 35.106 35.0369C42.9007 35.0369 49.2199 28.6686 49.2199 20.8131Z" fill="#FFE266"/>
<path d="M37.5006 41.088C29.491 41.088 22.9756 34.5209 22.9756 26.4498C22.9756 18.3787 29.491 11.8107 37.5006 11.8107C45.5103 11.8107 52.0257 18.3777 52.0257 26.4489C52.0257 34.52 45.5094 41.087 37.5006 41.087V41.088ZM37.5006 12.6404C29.9451 12.6404 23.798 18.8355 23.798 26.4498C23.798 34.0641 29.9451 40.2592 37.5006 40.2592C45.0561 40.2592 51.2033 34.0641 51.2033 26.4498C51.2033 18.8355 45.0561 12.6404 37.5006 12.6404Z" fill="#FCAB28"/>
<path d="M27.7484 14.6181L28.9922 11.4518L30.1557 14.6614L32.3349 15.9149L30.1127 17.0874L28.8689 21.1136L27.7054 17.0441L25.5261 15.7906L27.7484 14.6181Z" fill="white"/>
</g>
<defs>
<clipPath id="clip0_15371_85705">
<rect width="49" height="69" fill="white" transform="translate(13 2)"/>
</clipPath>
</defs>
</svg>
