<svg width="74" height="74" viewBox="0 0 74 74" fill="none" xmlns="http://www.w3.org/2000/svg">
<g clip-path="url(#clip0_15371_85706)">
<path d="M33.771 45.5039L41.2274 70.7316L47.3531 61.875L57.472 65.6327L49.4829 41.2103L33.771 45.5039Z" fill="#632ABB"/>
<path d="M24.7176 42.8198L16.7285 66.1686L27.6464 62.4118L33.2385 71L42.5593 46.0407L24.7176 42.8198Z" fill="#8137F2"/>
<path d="M13.0007 26.4488C13.0007 25.3206 15.7295 24.4004 15.8836 23.3146C16.0406 22.2023 13.6801 20.5476 13.9875 19.4919C14.3006 18.4173 17.1761 18.3099 17.6321 17.306C18.0928 16.2907 16.2939 14.0295 16.8882 13.0981C17.4863 12.161 20.2749 12.8767 20.9973 12.0376C21.7206 11.1975 20.6235 8.51721 21.4571 7.78827C22.2888 7.06121 24.7661 8.53511 25.696 7.93142C26.6202 7.3315 26.3137 4.4487 27.3211 3.98345C28.3173 3.52386 30.2807 5.64194 31.3469 5.32644C32.3945 5.01848 32.9104 2.16486 34.015 2.00664C35.0925 1.85219 36.3811 4.4421 37.5007 4.4421C38.6202 4.4421 39.9089 1.85219 40.9864 2.00664C42.0901 2.16486 42.6068 5.01848 43.6554 5.32832C44.7216 5.64382 46.685 3.52575 47.6812 3.98534C48.6886 4.44964 48.383 7.33339 49.3063 7.93331C50.2362 8.53605 52.7126 7.0631 53.5452 7.79015C54.3788 8.5191 53.2817 11.1994 54.005 12.0395C54.7265 12.8777 57.515 12.1629 58.1141 13.0999C58.7093 14.0314 56.9095 16.2917 57.3702 17.3078C57.8262 18.3118 60.7017 18.4192 61.0148 19.4937C61.3222 20.5504 58.9617 22.2042 59.1187 23.3164C59.2719 24.4023 62.0016 25.3225 62.0016 26.4507C62.0016 27.579 59.2728 28.4991 59.1187 29.585C58.9617 30.6972 61.3222 32.3519 61.0148 33.4077C60.7017 34.4823 57.8262 34.5896 57.3702 35.5936C56.9095 36.6088 58.7084 38.8701 58.1141 39.8015C57.516 40.7386 54.7274 40.0228 54.005 40.8619C53.2817 41.702 54.3788 44.3823 53.5452 45.1113C52.7135 45.8383 50.2362 44.3644 49.3063 44.9681C48.3821 45.568 48.6886 48.4508 47.6812 48.9161C46.685 49.3757 44.7216 47.2576 43.6554 47.5731C42.6068 47.8829 42.091 50.7356 40.9864 50.8948C39.9089 51.0492 38.6202 48.4593 37.5007 48.4593C36.3811 48.4593 35.0925 51.0492 34.015 50.8948C32.9113 50.7366 32.3945 47.8829 31.346 47.5731C30.2797 47.2576 28.3163 49.3757 27.3202 48.9161C26.3128 48.4518 26.6183 45.568 25.695 44.9681C24.7652 44.3654 22.2888 45.8383 21.4561 45.1113C20.6225 44.3823 21.7196 41.702 20.9963 40.8619C20.2749 40.0237 17.4863 40.7386 16.8873 39.8015C16.292 38.8701 18.0919 36.6098 17.6312 35.5936C17.1751 34.5896 14.2997 34.4823 13.9866 33.4077C13.6791 32.351 16.0397 30.6972 15.8827 29.585C15.7295 28.4991 12.9998 27.579 12.9998 26.4507L13.0007 26.4488Z" fill="#81A5B0"/>
<path d="M37.5013 46.3092C48.3852 46.3092 57.2082 37.4174 57.2082 26.4488C57.2082 15.4802 48.3852 6.58838 37.5013 6.58838C26.6175 6.58838 17.7944 15.4802 17.7944 26.4488C17.7944 37.4174 26.6175 46.3092 37.5013 46.3092Z" fill="#C7D4D8"/>
<path d="M37.4985 46.7631C32.1279 46.7631 27.0788 44.6554 23.2818 40.828C19.484 37.0006 17.3926 31.9121 17.3926 26.5006C17.3926 21.0891 19.484 15.9997 23.2818 12.1732C27.0797 8.34576 32.1288 6.23804 37.4985 6.23804C42.8682 6.23804 47.9183 8.34576 51.7152 12.1732C55.513 16.0006 57.6045 21.0891 57.6045 26.5006C57.6045 31.9121 55.513 37.0015 51.7152 40.828C47.9173 44.6554 42.8682 46.7631 37.4985 46.7631ZM37.4985 7.04326C26.8526 7.04326 18.1916 15.7717 18.1916 26.5006C18.1916 37.2294 26.8526 45.9579 37.4985 45.9579C48.1444 45.9579 56.8055 37.2294 56.8055 26.5006C56.8055 15.7717 48.1444 7.04326 37.4985 7.04326Z" fill="#81A5B0"/>
<path d="M37.4999 40.6726C45.2947 40.6726 51.6137 34.3044 51.6137 26.4488C51.6137 18.5932 45.2947 12.225 37.4999 12.225C29.705 12.225 23.386 18.5932 23.386 26.4488C23.386 34.3044 29.705 40.6726 37.4999 40.6726Z" fill="#D0E1E6"/>
<path d="M49.2177 20.8131C49.2177 19.9071 49.1298 19.0228 48.9691 18.1639C46.4076 14.5691 42.2266 12.225 37.4999 12.225C29.7051 12.225 23.386 18.5933 23.386 26.4488C23.386 27.3548 23.4738 28.2391 23.6346 29.098C26.1961 32.6928 30.377 35.0369 35.1038 35.0369C42.8985 35.0369 49.2177 28.6686 49.2177 20.8131Z" fill="#ECF1F2"/>
<path d="M37.4994 41.088C29.4898 41.088 22.9744 34.5209 22.9744 26.4498C22.9744 18.3787 29.4898 11.8107 37.4994 11.8107C45.5091 11.8107 52.0245 18.3777 52.0245 26.4489C52.0245 34.52 45.5082 41.087 37.4994 41.087V41.088ZM37.4994 12.6404C29.9439 12.6404 23.7967 18.8355 23.7967 26.4498C23.7967 34.0641 29.9439 40.2592 37.4994 40.2592C45.0549 40.2592 51.2021 34.0641 51.2021 26.4498C51.2021 18.8355 45.0549 12.6404 37.4994 12.6404Z" fill="#81A5B0"/>
<path d="M27.7484 14.6181L28.9922 11.4518L30.1557 14.6614L32.3349 15.9149L30.1127 17.0874L28.8689 21.1136L27.7054 17.0441L25.5261 15.7906L27.7484 14.6181Z" fill="white"/>
</g>
<defs>
<clipPath id="clip0_15371_85706">
<rect width="49" height="69" fill="white" transform="translate(13 2)"/>
</clipPath>
</defs>
</svg>
