<svg width="242" height="209" viewBox="0 0 242 209" fill="none" xmlns="http://www.w3.org/2000/svg">
<path d="M8.90247 96.0273V98.1806" stroke="#252B37" stroke-width="3.38308" stroke-linecap="round"/>
<path d="M4.06274 97.1934L5.82416 99.0047" stroke="#252B37" stroke-width="3.38308" stroke-linecap="round"/>
<path d="M2.00024 102.016H4.49086" stroke="#252B37" stroke-width="3.38308" stroke-linecap="round"/>
<path d="M3.85962 106.923L5.62103 105.111" stroke="#252B37" stroke-width="3.38308" stroke-linecap="round"/>
<path d="M8.90247 107.513V105.359" stroke="#252B37" stroke-width="3.38308" stroke-linecap="round"/>
<path d="M12.4958 106.076L11.0587 104.641" stroke="#252B37" stroke-width="3.38308" stroke-linecap="round"/>
<path d="M15.3666 102.486H13.2111" stroke="#252B37" stroke-width="3.38308" stroke-linecap="round"/>
<path d="M13.9294 97.4629L12.4923 98.8984" stroke="#252B37" stroke-width="3.38308" stroke-linecap="round"/>
<path d="M124.582 2V3.43553" stroke="#252B37" stroke-width="3.38308" stroke-linecap="round"/>
<path d="M120.274 6.30664H121.711" stroke="#252B37" stroke-width="3.38308" stroke-linecap="round"/>
<path d="M124.582 10.6133V9.17773" stroke="#252B37" stroke-width="3.38308" stroke-linecap="round"/>
<path d="M128.175 6.30664H126.738" stroke="#252B37" stroke-width="3.38308" stroke-linecap="round"/>
<path d="M41.2345 62.293V64.4463" stroke="#252B37" stroke-width="3.38308" stroke-linecap="round"/>
<path d="M34.7657 68.752H36.9213" stroke="#252B37" stroke-width="3.38308" stroke-linecap="round"/>
<path d="M41.2345 74.4951V72.3418" stroke="#252B37" stroke-width="3.38308" stroke-linecap="round"/>
<path d="M46.9838 68.752H44.8282" stroke="#252B37" stroke-width="3.38308" stroke-linecap="round"/>
<path d="M195.903 140.559C197.62 140.559 199.013 141.95 199.013 143.666C199.013 145.382 197.62 146.773 195.903 146.773C194.186 146.773 192.793 145.382 192.793 143.666" stroke="#252B37" stroke-width="3.38308" stroke-linecap="round"/>
<path fill-rule="evenodd" clip-rule="evenodd" d="M210.133 112.368C211.979 111.792 214.81 109.536 215.465 107.109C216.059 109.255 218.55 111.792 220.797 111.984C218.267 112.879 215.849 115.537 215.465 117.625C215.204 115.497 211.859 112.678 210.133 112.368Z" fill="#252B37"/>
<path fill-rule="evenodd" clip-rule="evenodd" d="M20.5939 139.601C21.5174 139.314 22.932 138.186 23.2596 136.973C23.5566 138.045 24.8016 139.314 25.9253 139.41C24.6607 139.857 23.4517 141.186 23.2596 142.23C23.129 141.166 21.4564 139.756 20.5939 139.601Z" fill="#252B37"/>
<path fill-rule="evenodd" clip-rule="evenodd" d="M37.733 39.7531C37.733 41.0843 36.6534 42.1625 35.3217 42.1625C33.9895 42.1625 32.9104 41.0843 32.9104 39.7531C32.9104 38.4226 33.9895 37.3438 35.3217 37.3438C36.6534 37.3438 37.733 38.4226 37.733 39.7531Z" fill="#252B37"/>
<path fill-rule="evenodd" clip-rule="evenodd" d="M198.749 46.2224C198.749 48.4465 196.944 50.2494 194.718 50.2494C192.492 50.2494 190.688 48.4465 190.688 46.2224C190.688 43.9982 192.492 42.1953 194.718 42.1953C196.944 42.1953 198.749 43.9982 198.749 46.2224Z" fill="#252B37"/>
<path fill-rule="evenodd" clip-rule="evenodd" d="M227.522 66.5792C227.522 68.3438 226.091 69.7737 224.326 69.7737C222.56 69.7737 221.129 68.3438 221.129 66.5792C221.129 64.8147 222.56 63.3848 224.326 63.3848C226.091 63.3848 227.522 64.8147 227.522 66.5792Z" fill="#252B37"/>
<path fill-rule="evenodd" clip-rule="evenodd" d="M82.7999 184.506C82.7999 185.618 81.8977 186.52 80.7845 186.52C79.6718 186.52 78.7697 185.618 78.7697 184.506C78.7697 183.394 79.6718 182.492 80.7845 182.492C81.8977 182.492 82.7999 183.394 82.7999 184.506Z" stroke="#252B37" stroke-width="3.38308" stroke-linecap="round"/>
<path fill-rule="evenodd" clip-rule="evenodd" d="M81.6001 24.2746C81.6001 25.6058 80.5204 26.684 79.1888 26.684C77.8572 26.684 76.7775 25.6058 76.7775 24.2746C76.7775 22.9441 77.8572 21.8652 79.1888 21.8652C80.5204 21.8652 81.6001 22.9441 81.6001 24.2746Z" stroke="#252B37" stroke-width="3.38308" stroke-linecap="round"/>
<path fill-rule="evenodd" clip-rule="evenodd" d="M143.106 206.806C141.565 207.392 139.841 206.618 139.255 205.079C138.668 203.54 139.442 201.816 140.983 201.231C142.524 200.645 144.248 201.418 144.834 202.958C145.421 204.497 144.647 206.22 143.106 206.806Z" stroke="#252B37" stroke-width="3.38308" stroke-linecap="round"/>
<path fill-rule="evenodd" clip-rule="evenodd" d="M142.191 149.86H83.2686C79.1213 149.86 75.7266 146.459 75.7266 142.302V58.3649C75.7266 54.2081 79.1213 50.8086 83.2686 50.8086H142.191C146.34 50.8086 149.735 54.2081 149.735 58.3649V142.302C149.735 146.459 146.34 149.86 142.191 149.86Z" fill="#252B37"/>
<path fill-rule="evenodd" clip-rule="evenodd" d="M137.164 153.448H78.2412C74.094 153.448 70.6992 150.047 70.6992 145.89V61.9527C70.6992 57.796 74.094 54.3965 78.2412 54.3965H137.164C141.313 54.3965 144.707 57.796 144.707 61.9527V145.89C144.707 150.047 141.313 153.448 137.164 153.448Z" fill="#414651"/>
<path fill-rule="evenodd" clip-rule="evenodd" d="M132.27 156.282H73.2256C69.0697 156.282 65.668 152.895 65.668 148.755V65.1656C65.668 61.026 69.0697 57.6406 73.2256 57.6406H132.27C136.427 57.6406 139.829 61.026 139.829 65.1656V148.755C139.829 152.895 136.427 156.282 132.27 156.282Z" fill="#D8DBEA"/>
<path fill-rule="evenodd" clip-rule="evenodd" d="M132.27 156.282H73.2256C69.0697 156.282 65.668 152.895 65.668 148.755V65.1656C65.668 61.026 69.0697 57.6406 73.2256 57.6406H132.27C136.427 57.6406 139.829 61.026 139.829 65.1656V148.755C139.829 152.895 136.427 156.282 132.27 156.282Z" fill="#535862"/>
<path fill-rule="evenodd" clip-rule="evenodd" d="M123.759 83.1074H80.1476C78.9022 83.1074 77.8827 82.1385 77.8827 80.9549C77.8827 79.7696 78.9022 78.8008 80.1476 78.8008H123.759C125.004 78.8008 126.024 79.7696 126.024 80.9549C126.024 82.1385 125.004 83.1074 123.759 83.1074Z" fill="#252B37"/>
<path fill-rule="evenodd" clip-rule="evenodd" d="M123.759 96.0273H80.1476C78.9022 96.0273 77.8827 95.0584 77.8827 93.8748C77.8827 92.6896 78.9022 91.7207 80.1476 91.7207H123.759C125.004 91.7207 126.024 92.6896 126.024 93.8748C126.024 95.0584 125.004 96.0273 123.759 96.0273Z" fill="#252B37"/>
<path fill-rule="evenodd" clip-rule="evenodd" d="M123.759 108.947H80.1476C78.9022 108.947 77.8827 107.978 77.8827 106.795C77.8827 105.611 78.9022 104.641 80.1476 104.641H123.759C125.004 104.641 126.024 105.611 126.024 106.795C126.024 107.978 125.004 108.947 123.759 108.947Z" fill="#252B37"/>
<path fill-rule="evenodd" clip-rule="evenodd" d="M123.759 121.867H80.1476C78.9022 121.867 77.8827 120.898 77.8827 119.715C77.8827 118.529 78.9022 117.561 80.1476 117.561H123.759C125.004 117.561 126.024 118.529 126.024 119.715C126.024 120.898 125.004 121.867 123.759 121.867Z" fill="#252B37"/>
<path fill-rule="evenodd" clip-rule="evenodd" d="M102.912 134.787H80.1573C78.9065 134.787 77.8827 133.818 77.8827 132.635C77.8827 131.449 78.9065 130.48 80.1573 130.48H102.912C104.163 130.48 105.187 131.449 105.187 132.635C105.187 133.818 104.163 134.787 102.912 134.787Z" fill="#252B37"/>
<path fill-rule="evenodd" clip-rule="evenodd" d="M142.294 78.7827L108.927 113.187C107.671 110.865 106.816 108.401 106.352 105.854L135.181 76.125C137.65 76.6226 140.041 77.5018 142.294 78.7827Z" fill="#0A0D12" fill-opacity="0.2"/>
<path fill-rule="evenodd" clip-rule="evenodd" d="M149.287 119.002C140.567 127.712 127.066 128.694 117.265 121.97C116.012 121.095 114.82 120.112 113.708 119.002C113.136 118.432 112.596 117.844 112.088 117.225C111.071 115.988 110.181 114.67 109.451 113.307C108.166 111.006 107.292 108.564 106.814 106.04C105.275 98.1251 107.577 89.6052 113.708 83.4833C119.854 77.3432 128.384 75.0584 136.31 76.5816C138.835 77.0729 141.281 77.9458 143.586 79.2152C144.951 79.9603 146.253 80.8497 147.493 81.8652C148.111 82.3711 148.7 82.9117 149.271 83.4833C150.384 84.5937 151.383 85.7827 152.242 87.0355C158.977 96.8229 157.991 110.309 149.287 119.002Z" fill="white" fill-opacity="0.1"/>
<path fill-rule="evenodd" clip-rule="evenodd" d="M152.199 87.4442L118.091 122.975C116.796 122.163 115.558 121.242 114.396 120.192C113.798 119.651 113.231 119.096 112.698 118.506L147.221 82.5389C147.865 83.015 148.478 83.5244 149.074 84.0649C150.236 85.1147 151.288 86.2456 152.199 87.4442Z" fill="#0A0D12" fill-opacity="0.2"/>
<path fill-rule="evenodd" clip-rule="evenodd" d="M146.399 116.375C137.326 125.44 122.623 125.438 113.549 116.375C104.487 107.323 104.487 92.6338 113.561 83.5709C122.623 74.518 137.326 74.518 146.389 83.5709C155.461 92.6338 155.461 107.323 146.399 116.375ZM151.056 78.9142C139.41 67.2812 120.539 67.2812 108.894 78.9142C97.2504 90.5456 97.2403 109.408 108.884 121.042C119.483 131.626 136.095 132.58 147.779 123.89C148.92 123.04 150.019 122.087 151.068 121.042C152.114 119.994 153.068 118.896 153.917 117.756C162.617 106.083 161.653 89.5 151.056 78.9142Z" fill="#252B37"/>
<path fill-rule="evenodd" clip-rule="evenodd" d="M196.887 164.891L196.398 165.38C193.164 168.612 187.867 168.612 184.631 165.38L154.766 135.546L167.022 123.303L196.887 153.136C200.123 156.369 200.123 161.658 196.887 164.891Z" fill="#A872FA"/>
<path fill-rule="evenodd" clip-rule="evenodd" d="M154.564 116.844L163.39 125.66L157.124 131.917L148.301 123.101C149.465 122.234 150.585 121.261 151.657 120.194C152.725 119.127 153.698 118.007 154.564 116.844Z" fill="#252B37"/>
<path fill-rule="evenodd" clip-rule="evenodd" d="M196.441 152.77L184.263 164.933L182.07 162.742L194.247 150.578L196.441 152.77Z" fill="#632ABB"/>
<path fill-rule="evenodd" clip-rule="evenodd" d="M167.699 123.724L155.187 136.222L153.328 134.366L165.84 121.867L167.699 123.724Z" fill="#632ABB"/>
</svg>
