<svg width="242" height="209" viewBox="0 0 242 209" fill="none" xmlns="http://www.w3.org/2000/svg">
<path d="M8.90234 96.0273V98.1806" stroke="#252B37" stroke-width="3.38308" stroke-linecap="round"/>
<path d="M4.0625 97.1934L5.82391 99.0047" stroke="#252B37" stroke-width="3.38308" stroke-linecap="round"/>
<path d="M2 102.016H4.49062" stroke="#252B37" stroke-width="3.38308" stroke-linecap="round"/>
<path d="M3.85938 106.923L5.62079 105.111" stroke="#252B37" stroke-width="3.38308" stroke-linecap="round"/>
<path d="M8.90234 107.513V105.359" stroke="#252B37" stroke-width="3.38308" stroke-linecap="round"/>
<path d="M12.4956 106.076L11.0586 104.641" stroke="#252B37" stroke-width="3.38308" stroke-linecap="round"/>
<path d="M15.3665 102.486H13.2109" stroke="#252B37" stroke-width="3.38308" stroke-linecap="round"/>
<path d="M13.9292 97.4629L12.4922 98.8984" stroke="#252B37" stroke-width="3.38308" stroke-linecap="round"/>
<path d="M124.582 2V3.43553" stroke="#252B37" stroke-width="3.38308" stroke-linecap="round"/>
<path d="M120.273 6.30664H121.71" stroke="#252B37" stroke-width="3.38308" stroke-linecap="round"/>
<path d="M124.582 10.6133V9.17773" stroke="#252B37" stroke-width="3.38308" stroke-linecap="round"/>
<path d="M128.175 6.30664H126.738" stroke="#252B37" stroke-width="3.38308" stroke-linecap="round"/>
<path d="M41.2344 62.293V64.4463" stroke="#252B37" stroke-width="3.38308" stroke-linecap="round"/>
<path d="M34.7656 68.752H36.9212" stroke="#252B37" stroke-width="3.38308" stroke-linecap="round"/>
<path d="M41.2344 74.4951V72.3418" stroke="#252B37" stroke-width="3.38308" stroke-linecap="round"/>
<path d="M46.9837 68.752H44.8281" stroke="#252B37" stroke-width="3.38308" stroke-linecap="round"/>
<path d="M195.903 140.559C197.62 140.559 199.013 141.95 199.013 143.666C199.013 145.382 197.62 146.773 195.903 146.773C194.186 146.773 192.793 145.382 192.793 143.666" stroke="#252B37" stroke-width="3.38308" stroke-linecap="round"/>
<path fill-rule="evenodd" clip-rule="evenodd" d="M210.133 112.368C211.979 111.792 214.81 109.536 215.465 107.109C216.059 109.255 218.55 111.792 220.797 111.984C218.267 112.879 215.848 115.537 215.465 117.625C215.204 115.497 211.858 112.678 210.133 112.368Z" fill="#252B37"/>
<path fill-rule="evenodd" clip-rule="evenodd" d="M20.5938 139.601C21.5173 139.314 22.9319 138.186 23.2594 136.973C23.5565 138.045 24.8015 139.314 25.9251 139.41C24.6606 139.857 23.4516 141.186 23.2594 142.23C23.1289 141.166 21.4563 139.756 20.5938 139.601Z" fill="#252B37"/>
<path fill-rule="evenodd" clip-rule="evenodd" d="M37.7328 39.7531C37.7328 41.0843 36.6531 42.1625 35.3215 42.1625C33.9892 42.1625 32.9102 41.0843 32.9102 39.7531C32.9102 38.4226 33.9892 37.3438 35.3215 37.3438C36.6531 37.3438 37.7328 38.4226 37.7328 39.7531Z" fill="#252B37"/>
<path fill-rule="evenodd" clip-rule="evenodd" d="M198.749 46.2224C198.749 48.4465 196.944 50.2494 194.718 50.2494C192.492 50.2494 190.688 48.4465 190.688 46.2224C190.688 43.9982 192.492 42.1953 194.718 42.1953C196.944 42.1953 198.749 43.9982 198.749 46.2224Z" fill="#252B37"/>
<path fill-rule="evenodd" clip-rule="evenodd" d="M227.522 66.5792C227.522 68.3438 226.091 69.7737 224.326 69.7737C222.56 69.7737 221.129 68.3438 221.129 66.5792C221.129 64.8147 222.56 63.3848 224.326 63.3848C226.091 63.3848 227.522 64.8147 227.522 66.5792Z" fill="#252B37"/>
<path fill-rule="evenodd" clip-rule="evenodd" d="M82.7998 184.506C82.7998 185.618 81.8976 186.52 80.7844 186.52C79.6717 186.52 78.7695 185.618 78.7695 184.506C78.7695 183.394 79.6717 182.492 80.7844 182.492C81.8976 182.492 82.7998 183.394 82.7998 184.506Z" stroke="#252B37" stroke-width="3.38308" stroke-linecap="round"/>
<path fill-rule="evenodd" clip-rule="evenodd" d="M81.6 24.2746C81.6 25.6058 80.5203 26.684 79.1887 26.684C77.857 26.684 76.7773 25.6058 76.7773 24.2746C76.7773 22.9441 77.857 21.8652 79.1887 21.8652C80.5203 21.8652 81.6 22.9441 81.6 24.2746Z" stroke="#252B37" stroke-width="3.38308" stroke-linecap="round"/>
<path fill-rule="evenodd" clip-rule="evenodd" d="M143.106 206.806C141.565 207.392 139.841 206.618 139.255 205.079C138.668 203.54 139.442 201.816 140.983 201.231C142.524 200.645 144.248 201.418 144.834 202.958C145.421 204.497 144.647 206.22 143.106 206.806Z" stroke="#252B37" stroke-width="3.38308" stroke-linecap="round"/>
<path fill-rule="evenodd" clip-rule="evenodd" d="M154.523 149.052H95.6006C91.4533 149.052 88.0586 145.65 88.0586 141.494V57.5563C88.0586 53.3995 91.4533 50 95.6006 50H154.523C158.672 50 162.067 53.3995 162.067 57.5563V141.494C162.067 145.65 158.672 149.052 154.523 149.052Z" fill="#252B37"/>
<path fill-rule="evenodd" clip-rule="evenodd" d="M149.496 152.639H90.5732C86.426 152.639 83.0312 149.238 83.0312 145.081V61.1442C83.0312 56.9874 86.426 53.5879 90.5732 53.5879H149.496C153.645 53.5879 157.039 56.9874 157.039 61.1442V145.081C157.039 149.238 153.645 152.639 149.496 152.639Z" fill="#414651"/>
<path fill-rule="evenodd" clip-rule="evenodd" d="M144.602 155.473H85.5576C81.4018 155.473 78 152.086 78 147.947V64.357C78 60.2174 81.4018 56.832 85.5576 56.832H144.602C148.759 56.832 152.161 60.2174 152.161 64.357V147.947C152.161 152.086 148.759 155.473 144.602 155.473Z" fill="#D8DBEA"/>
<path fill-rule="evenodd" clip-rule="evenodd" d="M144.602 155.473H85.5576C81.4018 155.473 78 152.086 78 147.947V64.357C78 60.2174 81.4018 56.832 85.5576 56.832H144.602C148.759 56.832 152.161 60.2174 152.161 64.357V147.947C152.161 152.086 148.759 155.473 144.602 155.473Z" fill="#535862"/>
<path fill-rule="evenodd" clip-rule="evenodd" d="M136.091 82.2988H92.4798C91.2343 82.2988 90.2148 81.3299 90.2148 80.1463C90.2148 78.961 91.2343 77.9922 92.4798 77.9922H136.091C137.337 77.9922 138.356 78.961 138.356 80.1463C138.356 81.3299 137.337 82.2988 136.091 82.2988Z" fill="#252B37"/>
<path fill-rule="evenodd" clip-rule="evenodd" d="M136.091 95.2187H92.4798C91.2343 95.2187 90.2148 94.2498 90.2148 93.0662C90.2148 91.881 91.2343 90.9121 92.4798 90.9121H136.091C137.337 90.9121 138.356 91.881 138.356 93.0662C138.356 94.2498 137.337 95.2187 136.091 95.2187Z" fill="#252B37"/>
<path fill-rule="evenodd" clip-rule="evenodd" d="M136.091 108.139H92.4798C91.2343 108.139 90.2148 107.17 90.2148 105.986C90.2148 104.803 91.2343 103.832 92.4798 103.832H136.091C137.337 103.832 138.356 104.803 138.356 105.986C138.356 107.17 137.337 108.139 136.091 108.139Z" fill="#252B37"/>
<path fill-rule="evenodd" clip-rule="evenodd" d="M136.091 121.059H92.4798C91.2343 121.059 90.2148 120.09 90.2148 118.906C90.2148 117.721 91.2343 116.752 92.4798 116.752H136.091C137.337 116.752 138.356 117.721 138.356 118.906C138.356 120.09 137.337 121.059 136.091 121.059Z" fill="#252B37"/>
<path fill-rule="evenodd" clip-rule="evenodd" d="M115.244 133.978H92.4895C91.2387 133.978 90.2148 133.01 90.2148 131.826C90.2148 130.641 91.2387 129.672 92.4895 129.672H115.244C116.495 129.672 117.519 130.641 117.519 131.826C117.519 133.01 116.495 133.978 115.244 133.978Z" fill="#252B37"/>
<path d="M157.427 86.8538C169.813 86.8538 179.854 76.8129 179.854 64.4269C179.854 52.0409 169.813 42 157.427 42C145.041 42 135 52.0409 135 64.4269C135 76.8129 145.041 86.8538 157.427 86.8538Z" fill="#D9206E"/>
<rect width="32" height="32" transform="translate(141 48)" fill="#D9206E"/>
<path d="M165 56L149 72M149 56L165 72" stroke="#FDFDFD" stroke-width="2" stroke-linecap="round" stroke-linejoin="round"/>
</svg>
